<svg xmlns="http://www.w3.org/2000/svg" viewBox="0 0 84.69 54.69"><defs><style>.cls-1{fill:#900;stroke:#000;stroke-miterlimit:10;stroke-width:3.7px;}.cls-2{fill:#fff;}</style></defs><title>01Asset 11eye</title><g id="Layer_2" data-name="Layer 2"><g id="_hero_text" data-name=" hero text"><path d="M83.79,15.22a2.17,2.17,0,0,0-3,.48L74,25.05a53.64,53.64,0,0,0-10.68-6.33l3.95-11.4A2.18,2.18,0,1,0,63.15,5.9L59.26,17.12a51.32,51.32,0,0,0-14.74-2.81V2.18a2.18,2.18,0,1,0-4.35,0V14.31a51.32,51.32,0,0,0-14.74,2.81L21.54,5.9a2.18,2.18,0,0,0-4.12,1.42l3.95,11.4a53.64,53.64,0,0,0-10.68,6.33L3.94,15.7a2.18,2.18,0,0,0-3-.49,2.2,2.2,0,0,0-.49,3.05l6.92,9.58c-1,.87-1.94,1.77-2.87,2.73l-3.8,3.9,3.8,3.91a52.15,52.15,0,0,0,75.77,0L84,34.47l-3.8-3.9c-.93-1-1.89-1.86-2.87-2.73l6.92-9.58A2.18,2.18,0,0,0,83.79,15.22ZM42.35,49.09A47.09,47.09,0,0,1,8.48,34.47,47.12,47.12,0,0,1,42.35,19.86,47.12,47.12,0,0,1,76.21,34.47,47.09,47.09,0,0,1,42.35,49.09Z"/><circle class="cls-1" cx="42.35" cy="34.47" r="14.57"/><circle class="cls-2" cx="49.17" cy="28.36" r="5.42"/></g></g></svg>