<?xml version="1.0" encoding="utf-8"?>
<!-- Generator: Adobe Illustrator 24.0.1, SVG Export Plug-In . SVG Version: 6.00 Build 0)  -->
<svg version="1.1" id="Layer_1" xmlns="http://www.w3.org/2000/svg" xmlns:xlink="http://www.w3.org/1999/xlink" x="0px" y="0px"
	 viewBox="0 0 50 50" style="enable-background:new 0 0 50 50;" xml:space="preserve">
<style type="text/css">
	.st0{fill:#FFFF00;}
	.st1{fill:#1D1D1B;}
</style>
<g>
	<circle class="st0" cx="25" cy="25" r="25"/>
	<g>
		<path class="st1" d="M8,11.2c0,5.2,0.2,10.4,0.1,15.5C8.1,30.4,7.6,34.4,8.7,38c0.8,2.4,2.3,4.4,4.7,5.3c2.3,0.8,4.8,0.4,7.1,0.1
			c3.4-0.6,6.6-1.4,10-2c1.3-0.2,2.1-1.9,1.8-3.1c-0.4-1.4-1.8-2-3.1-1.8c-2.8,0.5-5.5,1.1-8.3,1.6c-0.5,0.1-1.1,0.2-1.6,0.3
			c-0.3,0-0.6,0.1-0.9,0.1c0.4-0.1-0.3,0-0.4,0c-0.4,0-0.9,0.1-1.3,0.1c-0.2,0-0.5,0-0.7,0c-0.1,0-0.2,0-0.3,0c-0.4,0,0.4,0.1,0.1,0
			c-0.3-0.1-1.3-0.4-0.7-0.1c-0.2-0.1-0.3-0.2-0.5-0.2c-0.1,0-0.1-0.1-0.2-0.1c-0.3-0.2,0.3,0.3,0.1,0.1c-0.1-0.2-0.3-0.3-0.4-0.5
			c0.3,0.3,0.1,0.1-0.1-0.1c-0.1-0.2-0.2-0.4-0.3-0.5c0.2,0.4-0.1-0.3-0.1-0.5c-0.9-2.8-0.4-6.2-0.4-9.4c0.1-5.4-0.1-10.7-0.1-16
			C13.1,8,8,8,8,11.2L8,11.2z"/>
		<path class="st1" d="M43.6,27.8l-6.7-2.1c0.3-1,0.5-2,0.6-3h5.7c0.7,0,1.3-0.6,1.3-1.3s-0.6-1.3-1.3-1.3h-5.3c0.3-3,0.4-6,0.4-9
			c0-3.2-5-3.3-5,0c0,2.3,0,4.7-0.2,7.1c0,0.7-0.1,1.5-0.2,2.2c0,0.1-0.1,0.8-0.1,0.9c0,0.3-0.1,0.6-0.1,0.9c-0.2,1.4-0.5,2.8-1,4.1
			c0,0.1-0.3,0.8-0.3,0.7c-0.1,0.2-0.2,0.4-0.3,0.6c-0.1,0.2-0.2,0.4-0.4,0.6c-0.1,0.1-0.1,0.2-0.2,0.3c0,0,0,0,0,0
			c-0.1,0.1-0.2,0.3-0.3,0.4c0,0,0,0-0.1,0c-0.1,0-0.2,0.1-0.3,0.2c0,0,0,0,0,0c0,0,0,0,0,0c-0.1,0-0.2,0-0.3,0.1c0,0,0,0,0,0
			c-0.1,0-0.2,0-0.3,0c-0.3-0.1-0.6-0.1-0.8-0.2c0,0-0.1,0-0.1,0c0.3,0.1-0.1-0.1-0.2-0.1c-0.2-0.1-0.3-0.2-0.5-0.3
			c-0.1,0-0.4-0.3-0.5-0.3c-0.2-0.2-0.4-0.4-0.6-0.6c0-0.1-0.3-0.5-0.4-0.6c-0.1-0.1-0.1-0.2-0.2-0.4c0,0-0.1-0.3-0.2-0.4
			c-0.2-0.5-0.3-1-0.4-1.5c0-0.2-0.1-0.5-0.1-0.7c0-0.1-0.1-0.6-0.1-0.6c0-0.4-0.1-0.9-0.1-1.3c-0.1-1.1-0.1-2.3-0.1-3.4
			c0-1.9,0.2-3.9,0.2-5.8c0-3.2-5-3.3-5,0c0,4.1-0.5,8.3,0.3,12.4c0.7,4.1,3.3,7.8,7.6,8.7c2.7,0.6,4.7-0.3,6.2-1.8l3.3,4.6
			c0.3,0.3,0.6,0.5,1,0.5c0.3,0,0.5-0.1,0.7-0.2c0.6-0.4,0.7-1.2,0.3-1.8L35.4,30c0.3-0.6,0.6-1.2,0.8-1.9l6.7,2.1
			c0.1,0,0.3,0.1,0.4,0.1c0.5,0,1-0.3,1.2-0.9C44.6,28.7,44.3,28,43.6,27.8z"/>
	</g>
</g>
</svg>
